<?xml version="1.0" encoding="utf-8"?>
<!-- Generator: Adobe Illustrator 26.0.0, SVG Export Plug-In . SVG Version: 6.00 Build 0)  -->
<svg version="1.1" id="Layer_1" xmlns="http://www.w3.org/2000/svg" xmlns:xlink="http://www.w3.org/1999/xlink" x="0px" y="0px"
	 viewBox="0 0 612 792" style="enable-background:new 0 0 612 792;" xml:space="preserve">
<style type="text/css">
	.st0{fill:#00AEEF;}
	.st1{fill:#FFFFFF;}
</style>
<rect x="39.72" y="155" class="st0" width="40.56" height="500"/>
<rect x="99.42" y="396" class="st0" width="40.56" height="200.24"/>
<rect x="162.15" y="396" class="st0" width="40.56" height="200.24"/>
<polygon class="st0" points="538.81,582.56 202.61,582.56 162.15,582.56 162.15,396 538.81,396 "/>
<rect x="499.17" y="396" class="st0" width="40.56" height="200.24"/>
<g>
	<rect x="99.42" y="155" class="st0" width="40.56" height="218.74"/>
	<rect x="269.44" y="155" class="st0" width="40.56" height="218.74"/>
	
		<rect x="184.97" y="252.71" transform="matrix(6.123234e-17 -1 1 6.123234e-17 -153.2887 558.7061)" class="st0" width="35.49" height="206.58"/>
	
		<rect x="184.97" y="69.45" transform="matrix(6.123234e-17 -1 1 6.123234e-17 29.9662 375.4513)" class="st0" width="35.49" height="206.58"/>
</g>
<rect x="269.44" y="384.72" transform="matrix(-1.836970e-16 1 -1 -1.836970e-16 924.4437 345)" class="st0" width="40.56" height="500"/>
<rect x="414.09" y="69.93" transform="matrix(-1.836970e-16 1 -1 -1.836970e-16 609.6507 -259.0944)" class="st0" width="40.56" height="210.7"/>
<g>
	
		<rect x="414.09" y="249.18" transform="matrix(-1.836970e-16 1 -1 -1.836970e-16 788.9025 -79.8426)" class="st0" width="40.56" height="210.7"/>
	
		<rect x="466.77" y="200.92" transform="matrix(-1.836970e-16 1 -1 -1.836970e-16 740.6371 -233.4573)" class="st0" width="40.56" height="105.35"/>
	
		<rect x="499.17" y="233.36" transform="matrix(-1 -1.224647e-16 1.224647e-16 -1 1038.8875 572.0699)" class="st0" width="40.56" height="105.35"/>
</g>
<polyline class="st1" points="499.26,396 499.26,528.92 163.07,396 "/>
<polygon class="st1" points="202.49,470.28 202.83,596.24 539.72,596.24 "/>
<g>
	<g>
		<path class="st1" d="M190.95,398.7c1.11-0.05,2.22-0.04,3.33,0.03c0.48,0.03,0.95,0.07,1.42,0.12c0.16,0.02,0.32,0.04,0.47,0.06
			c-0.27-0.04-0.26-0.04,0.04,0.01c0.24,0.04,0.47,0.07,0.71,0.11c2.12,0.36,4.18,0.95,6.18,1.73c1.22,0.48,2.8-0.52,3.08-1.75
			c0.33-1.44-0.44-2.56-1.75-3.08c-4.26-1.67-8.91-2.43-13.49-2.24c-1.3,0.06-2.56,1.11-2.5,2.5
			C188.5,397.5,189.55,398.76,190.95,398.7L190.95,398.7z"/>
	</g>
</g>
<g>
	<g>
		<path class="st1" d="M196.38,391.31c-5.2-2.43-10.61-4.29-16.26-5.35c-1.34-0.25-2.64-0.21-3.85,0.5c-1.04,0.61-2.03,1.8-2.3,2.99
			c-0.56,2.46,0.74,5.64,3.49,6.15c4.38,0.82,8.66,2.1,12.77,3.83c-0.4-0.17-0.8-0.34-1.19-0.5c0.77,0.33,1.53,0.67,2.29,1.02
			c1.24,0.58,2.48,0.88,3.85,0.5c1.16-0.32,2.42-1.22,2.99-2.3C199.34,395.94,198.91,392.49,196.38,391.31L196.38,391.31z"/>
	</g>
</g>
<g>
	<g>
		<path class="st1" d="M167.02,396.07c2.62,0,5.12-2.3,5-5c-0.12-2.71-2.2-5-5-5c-2.62,0-5.12,2.3-5,5
			C162.14,393.78,164.21,396.07,167.02,396.07L167.02,396.07z"/>
	</g>
</g>
<g>
	<g>
		<path class="st1" d="M170.59,397.14c2.62,0,5.12-2.3,5-5c-0.12-2.71-2.2-5-5-5c-2.62,0-5.12,2.3-5,5
			C165.71,394.85,167.79,397.14,170.59,397.14L170.59,397.14z"/>
	</g>
</g>
<g>
	<g>
		<path class="st1" d="M174.52,397.86c2.62,0,5.12-2.3,5-5c-0.12-2.71-2.2-5-5-5c-2.62,0-5.12,2.3-5,5
			C169.64,395.57,171.72,397.86,174.52,397.86L174.52,397.86z"/>
	</g>
</g>
<g>
	<g>
		<path class="st1" d="M179.17,398.21c2.62,0,5.12-2.3,5-5c-0.12-2.71-2.2-5-5-5c-2.62,0-5.12,2.3-5,5
			C174.29,395.92,176.36,398.21,179.17,398.21L179.17,398.21z"/>
	</g>
</g>
<g>
	<g>
		<path class="st1" d="M179.56,397.91c0.64,0.07,1.27,0.15,1.91,0.23c0.32,0.04,0.63,0.08,0.95,0.12c-0.54-0.07-0.5-0.07,0.1,0.01
			c1.11,0.16,2.22,0.32,3.32,0.49c2.45,0.38,4.89,0.8,7.33,1.27c4.79,0.92,9.54,2.02,14.26,3.28c2.52,0.67,5.55-0.84,6.15-3.49
			c0.6-2.62-0.79-5.43-3.49-6.15c-10.03-2.67-20.22-4.55-30.52-5.76c-2.61-0.31-5.11,2.52-5,5
			C174.69,395.88,176.76,397.58,179.56,397.91L179.56,397.91z"/>
	</g>
</g>
<g>
	<g>
		<path class="st1" d="M214.2,402.61c35.62,1.2,71.26,2.39,106.9,2.4c17.81,0,35.61-0.32,53.4-1.02c17.76-0.69,35.5-1.65,53.26-2.27
			c19.91-0.7,39.85-0.98,59.76-0.04c2.62,0.12,5.12-2.39,5-5c-0.13-2.82-2.2-4.87-5-5c-35.51-1.68-71.02,0.55-106.5,2.05
			c-35.6,1.5-71.21,1.51-106.84,0.69c-20-0.46-40-1.13-59.99-1.8c-2.62-0.09-5.12,2.36-5,5C209.33,400.39,211.4,402.51,214.2,402.61
			L214.2,402.61z"/>
	</g>
</g>
<g>
	<g>
		<path class="st1" d="M493.62,401.07c2.62,0,5.12-2.3,5-5c-0.12-2.71-2.2-5-5-5c-2.62,0-5.12,2.3-5,5
			C488.74,398.78,490.81,401.07,493.62,401.07L493.62,401.07z"/>
	</g>
</g>
<g>
	<g>
		<path class="st1" d="M500.41,600.11c2.62,0,5.12-2.3,5-5c-0.12-2.71-2.2-5-5-5c-2.62,0-5.12,2.3-5,5
			C495.53,597.82,497.6,600.11,500.41,600.11L500.41,600.11z"/>
	</g>
</g>
<g>
	<g>
		<path class="st1" d="M507.2,601.54c2.62,0,5.12-2.3,5-5c-0.12-2.71-2.2-5-5-5c-2.62,0-5.12,2.3-5,5
			C502.32,599.24,504.39,601.54,507.2,601.54L507.2,601.54z"/>
	</g>
</g>
<g>
	<g>
		<path class="st1" d="M517.2,602.96c2.62,0,5.12-2.3,5-5c-0.12-2.71-2.2-5-5-5c-2.62,0-5.12,2.3-5,5
			C512.32,600.67,514.4,602.96,517.2,602.96L517.2,602.96z"/>
	</g>
</g>
<g>
	<g>
		<path class="st1" d="M523.63,603.32c2.62,0,5.12-2.3,5-5c-0.12-2.71-2.2-5-5-5c-2.62,0-5.12,2.3-5,5
			C518.75,601.03,520.83,603.32,523.63,603.32L523.63,603.32z"/>
	</g>
</g>
<g>
	<g>
		<path class="st1" d="M530.07,604.39c2.62,0,5.12-2.3,5-5c-0.12-2.71-2.2-5-5-5c-2.62,0-5.12,2.3-5,5
			C525.19,602.1,527.26,604.39,530.07,604.39L530.07,604.39z"/>
	</g>
</g>
<g>
	<g>
		<path class="st1" d="M534.35,605.11c2.62,0,5.12-2.3,5-5c-0.12-2.71-2.2-5-5-5c-2.62,0-5.12,2.3-5,5
			C529.47,602.82,531.55,605.11,534.35,605.11L534.35,605.11z"/>
	</g>
</g>
<g>
	<g>
		<path class="st1" d="M536.85,606.18c2.62,0,5.12-2.3,5-5c-0.12-2.71-2.2-5-5-5c-2.62,0-5.12,2.3-5,5
			C531.98,603.89,534.05,606.18,536.85,606.18L536.85,606.18z"/>
	</g>
</g>
</svg>
