<?xml version="1.0" encoding="utf-8"?>
<!-- Generator: Adobe Illustrator 26.0.0, SVG Export Plug-In . SVG Version: 6.00 Build 0)  -->
<svg version="1.1" id="Layer_1" xmlns="http://www.w3.org/2000/svg" xmlns:xlink="http://www.w3.org/1999/xlink" x="0px" y="0px"
	 viewBox="0 0 612 792" style="enable-background:new 0 0 612 792;" xml:space="preserve">
<style type="text/css">
	.st0{fill:#FFFFFF;}
	.st1{fill:#00AEEF;}
</style>
<rect x="16.5" y="79" class="st0" width="573.5" height="573.5"/>
<g>
	<path class="st1" d="M16.5,79v296.86H590V79H16.5z M540,325.86H66.5V129H540V325.86z"/>
	<rect x="66.5" y="129" class="st0" width="473.5" height="196.86"/>
</g>
<rect x="16.52" y="103.56" class="st1" width="50" height="548.94"/>
<rect x="99.69" y="152.5" class="st1" width="28.53" height="154.82"/>
<rect x="97.43" y="407.44" class="st1" width="40" height="245.06"/>
<rect x="265.42" y="407.44" class="st1" width="40" height="245.06"/>
<rect x="327.47" y="407.44" class="st1" width="40" height="245.06"/>
<rect x="386.79" y="407.44" class="st1" width="40" height="245.06"/>
<rect x="474.36" y="331.81" transform="matrix(6.123234e-17 -1 1 6.123234e-17 66.918 921.8062)" class="st1" width="40" height="191.28"/>
<rect x="474.36" y="434.33" transform="matrix(6.123234e-17 -1 1 6.123234e-17 -35.61 1024.3341)" class="st1" width="40" height="191.28"/>
<rect x="175.32" y="331.81" transform="matrix(6.123234e-17 -1 1 6.123234e-17 -232.1196 622.7686)" class="st1" width="40" height="191.28"/>
<rect x="150.5" y="444.9" transform="matrix(6.123234e-17 -1 1 6.123234e-17 -345.209 686.2045)" class="st1" width="40" height="141.62"/>
<rect x="56.66" y="588.56" transform="matrix(6.123234e-17 -1 1 6.123234e-17 -559.6885 709.1646)" class="st1" width="36.15" height="91.73"/>
<rect x="448.74" y="511.24" transform="matrix(6.123234e-17 -1 1 6.123234e-17 -163.7632 1101.2368)" class="st1" width="40" height="242.53"/>
<rect x="99.69" y="152.5" class="st1" width="185.74" height="85.37"/>
<rect x="179.87" y="132.32" transform="matrix(-1.836970e-16 1 -1 -1.836970e-16 387.739 2.6306)" class="st0" width="25.37" height="125.74"/>
<rect x="317.47" y="152.5" class="st1" width="189.26" height="154.82"/>
<rect x="364.69" y="165.28" transform="matrix(-1.836970e-16 1 -1 -1.836970e-16 642.0088 -182.1943)" class="st0" width="94.82" height="129.26"/>
<rect x="187.45" y="177.75" transform="matrix(0.3137 -0.9495 0.9495 0.3137 -112.5739 374.6752)" class="st1" width="30.89" height="174.93"/>
<rect x="280.84" y="277.31" class="st1" width="61.05" height="30"/>
</svg>
