<?xml version="1.0" encoding="utf-8"?>
<!-- Generator: Adobe Illustrator 26.0.0, SVG Export Plug-In . SVG Version: 6.00 Build 0)  -->
<svg version="1.1" xmlns="http://www.w3.org/2000/svg" xmlns:xlink="http://www.w3.org/1999/xlink" x="0px" y="0px"
	 viewBox="0 0 779.58 423.14" style="enable-background:new 0 0 779.58 423.14;" xml:space="preserve">
<style type="text/css">
	.st0{fill:#00AEEF;}
	.st1{fill:#FFFFFF;}
</style>
<g id="Layer_1">
	<g>
		<polygon class="st0" points="321.96,68.26 319.33,77.21 321.79,68.26 		"/>
	</g>
	<g>
		<polygon class="st1" points="339.85,181.56 338.95,184.96 335.23,184.96 		"/>
		<polygon class="st1" points="369.91,132.66 327.01,294.65 311.02,290.41 312.81,283.65 338.95,184.96 339.85,181.56 
			341.87,173.94 342.28,172.38 345.21,161.33 346.35,157.01 353.65,129.45 353.92,128.43 		"/>
	</g>
	<polygon class="st0" points="417.81,133.54 418.67,133.55 363.08,349.56 327.4,349.29 382.78,133.27 386,133.3 386.02,133.21 
		417.9,133.21 	"/>
	<polygon class="st0" points="342.47,182.95 311.5,288.02 275.19,288.02 296.34,216.9 333.8,189.33 338.42,185.93 	"/>
	<polygon class="st0" points="492.09,97.94 492.09,98.92 483.77,128.43 321.49,128.43 330.08,97.94 	"/>
	<polygon class="st0" points="319.33,77.21 318.27,81.08 318.2,81.06 	"/>
	<g>
		<polygon class="st0" points="329.54,184.84 343.88,133.86 339.44,133.86 339.44,133.82 320.25,133.82 314.35,156.08 
			312.78,161.38 294.63,161.38 318.2,81.06 319.33,77.21 321.79,68.26 334.38,22.44 301.1,13.3 285.05,71.77 285,71.94 
			221.38,288.02 257.25,288.02 286.51,189.57 304.45,189.57 299.22,207.48 330,184.97 		"/>
		<polygon class="st0" points="341.04,188.07 342.34,183.43 337.39,187.05 		"/>
		<polygon class="st0" points="329.54,184.84 330,184.97 344.99,174.01 356.25,133.97 355.85,133.86 343.88,133.86 		"/>
		<polygon class="st1" points="299.22,207.48 290.51,213.85 294.07,218.73 337.39,187.05 342.34,183.43 349.1,178.49 345.53,173.62 
			344.99,174.01 330,184.97 		"/>
		<polygon class="st1" points="361.07,130.17 339.44,130.17 339.44,133.82 339.44,133.86 343.88,133.86 355.85,133.86 
			361.07,133.86 		"/>
	</g>
</g>
<g id="Layer_2">
	<path class="st0" d="M245.44,123.64C262.36,13.89,399.13-7,484.47,92.25c-70.8-97.19-233.24-125.33-260.98,7.9
		c-258.85,14.87-274.45,271.37-77.91,312.92c123.26,21.52,461.44-216.15,624.54-34.77c-119.23-174.39-535.65-7.05-577.8-6.32
		C86.25,386.76,9.5,176.47,245.44,123.64z"/>
</g>
</svg>
