<?xml version="1.0" encoding="utf-8"?>
<!-- Generator: Adobe Illustrator 26.0.0, SVG Export Plug-In . SVG Version: 6.00 Build 0)  -->
<svg version="1.1" id="Layer_1" xmlns="http://www.w3.org/2000/svg" xmlns:xlink="http://www.w3.org/1999/xlink" x="0px" y="0px"
	 viewBox="0 0 612 615.24" style="enable-background:new 0 0 612 615.24;" xml:space="preserve">
<style type="text/css">
	.st0{fill:#FFFFFF;}
	.st1{fill:#00AEEF;}
</style>
<rect x="26.5" y="32.12" class="st0" width="559" height="559"/>
<rect x="276.75" y="-218.13" transform="matrix(-1.836970e-16 1 -1 -1.836970e-16 367.3671 -244.6329)" class="st1" width="58.5" height="559"/>
<rect x="276.75" y="282.37" transform="matrix(-1.836970e-16 1 -1 -1.836970e-16 867.8671 255.8671)" class="st1" width="58.5" height="559"/>
<rect x="527" y="288.62" transform="matrix(-1 -1.224647e-16 1.224647e-16 -1 1112.5 879.7341)" class="st1" width="58.5" height="302.5"/>
<rect x="107" y="106.12" transform="matrix(-1 -1.224647e-16 1.224647e-16 -1 258 380.2342)" class="st1" width="44" height="168"/>
<rect x="294" y="194.12" transform="matrix(-1 -1.224647e-16 1.224647e-16 -1 632 468.2342)" class="st1" width="44" height="80"/>
<rect x="232" y="44.12" transform="matrix(6.123234e-17 -1 1 6.123234e-17 125.8829 382.1171)" class="st1" width="44" height="168"/>
<rect x="274" y="148.12" transform="matrix(6.123234e-17 -1 1 6.123234e-17 105.8829 486.1171)" class="st1" width="44" height="84"/>
<rect x="232" y="168.12" transform="matrix(6.123234e-17 -1 1 6.123234e-17 1.8829 506.1171)" class="st1" width="44" height="168"/>
<g>
	<rect x="26.5" y="32.12" class="st1" width="58.5" height="256.5"/>
	<rect x="26.5" y="288.62" class="st1" width="559" height="58.5"/>
</g>
<rect x="362" y="106.12" class="st1" width="223.5" height="168"/>
<rect x="389.75" y="122.37" transform="matrix(-1.836970e-16 1 -1 -1.836970e-16 663.8671 -283.6329)" class="st1" width="168" height="135.5"/>
<polygon class="st0" points="362,106.12 541.5,203.74 541.5,106.12 "/>
<path class="st0" d="M541.5,274.12"/>
<polygon class="st0" points="406,274.12 406,183.12 585.5,274.12 "/>
<g>
	<g>
		<path class="st0" d="M369.38,102.15c-1.47-0.41-2.94-0.83-4.4-1.24c-0.44,1.61-0.89,3.21-1.33,4.82
			c9.67,2.37,19.65,2.78,29.56,2.95c10.2,0.18,20.39,0.32,30.59,0.48c20.46,0.32,40.92,0.64,61.38,0.96
			c11.48,0.18,22.95,0.36,34.43,0.54c-0.72-1.25-1.44-2.51-2.16-3.76c0.03-0.06,0.07-0.12,0.1-0.17c0.37-0.21,0.74-0.43,1.1-0.64
			c0.53-0.21,1.14,0.15,1.35,0.61c0.72,1.61-0.86,1.25,0.06,1.11c0.82-0.12,1.61-0.2,2.44-0.25c2.42-0.16,4.84-0.33,7.25-0.49
			c1.35-0.09,2.5-1.08,2.5-2.5c0-1.28-1.15-2.59-2.5-2.5c-2.42,0.16-4.84,0.33-7.25,0.49c-2.12,0.14-4.49,0.15-6.14,1.71
			c-3.95,3.73,2.44,9.69,5.4,5.17c1.06-1.63-0.35-3.73-2.16-3.76c-20.29-0.32-40.58-0.64-60.88-0.95s-40.58-0.64-60.88-0.95
			c-11.01-0.17-22.12-0.21-32.88-2.85c-3.12-0.77-4.43,3.95-1.33,4.82c1.47,0.41,2.94,0.83,4.4,1.24
			C371.15,107.84,372.47,103.02,369.38,102.15L369.38,102.15z"/>
	</g>
</g>
<g>
	<g>
		<path class="st0" d="M533.85,107.63c3.22,0,3.22-5,0-5C530.63,102.63,530.62,107.63,533.85,107.63L533.85,107.63z"/>
	</g>
</g>
<g>
	<g>
		<path class="st0" d="M538.38,108.54c3.22,0,3.22-5,0-5C535.17,103.54,535.16,108.54,538.38,108.54L538.38,108.54z"/>
	</g>
</g>
<g>
	<g>
		<path class="st0" d="M408.61,277.79c3.22,0,3.22-5,0-5C405.39,272.79,405.39,277.79,408.61,277.79L408.61,277.79z"/>
	</g>
</g>
<g>
	<g>
		<path class="st0" d="M582.4,279.15c3.22,0,3.22-5,0-5C579.18,274.15,579.18,279.15,582.4,279.15L582.4,279.15z"/>
	</g>
</g>
<g>
	<g>
		<path class="st0" d="M578.66,274.19c-1.38,0.75-2.89,0.17-4.3-0.52c-2.06-0.99-3.99-2.2-6.11-3.06
			c-5.12-2.09-9.96-0.05-15.13,0.51c-5.68,0.62-11.4-0.59-17.07-0.88c-5.53-0.28-11.07-0.12-16.6-0.06
			c-22.93,0.25-45.85,0.49-68.78,0.74c-12.96,0.14-25.92,0.28-38.87,0.42c-3.22,0.03-3.22,5.03,0,5c23.26-0.25,46.52-0.5,69.77-0.75
			c11.55-0.12,23.09-0.25,34.64-0.37c5.72-0.06,11.46-0.22,17.18-0.08c5.62,0.14,11.19,1.18,16.81,1.13
			c3.27-0.03,6.38-0.73,9.57-1.32c2.56-0.48,5-0.52,7.4,0.61c4.44,2.1,9.02,5.66,14.02,2.95
			C584.02,276.97,581.5,272.65,578.66,274.19L578.66,274.19z"/>
	</g>
</g>
<g>
	<g>
		<path class="st0" d="M576.5,277.33c3.22,0,3.22-5,0-5C573.28,272.33,573.28,277.33,576.5,277.33L576.5,277.33z"/>
	</g>
</g>
<rect x="26.5" y="366.32" class="st1" width="257.32" height="143.88"/>
<rect x="103.01" y="329.39" transform="matrix(-1.836970e-16 1 -1 -1.836970e-16 569.2162 258.894)" class="st0" width="104.29" height="169.32"/>
<rect x="306" y="366.32" class="st1" width="195.85" height="143.88"/>
<rect x="359.59" y="337.33" transform="matrix(-1.836970e-16 1 -1 -1.836970e-16 799.4554 36.7336)" class="st0" width="43.55" height="161.53"/>
<rect x="404.31" y="411.78" transform="matrix(-1.836970e-16 1 -1 -1.836970e-16 918.9212 66.1637)" class="st0" width="44.15" height="161.53"/>
</svg>
